# xmcd
#
# Track frame offsets:
#	150
#	19039
#	34271
#	53193
#	72038
#	91895
#	116108
#	132073
#	148133
#	164692
#
# Disc length: 2515 seconds
#
# Revision: 0
# Processed by: cddbd v1.5.2PL0 Copyright (c) Steve Scherf et al.
# Submitted via: audiograbber 1.83.01
#
DISCID=8b09d10a
DTITLE=Diretone - Diretone
DYEAR=2011
DGENRE=Metal
TTITLE0=Nerve
TTITLE1=Bitter
TTITLE2=It Never Ends
TTITLE3=Cold
TTITLE4=Drawn to Life
TTITLE5=Got to Believe
TTITLE6=While You Forget
TTITLE7=Eyes Wide Shut
TTITLE8=Antidote
TTITLE9=Road
EXTD=
EXTT0=
EXTT1=
EXTT2=
EXTT3=
EXTT4=
EXTT5=
EXTT6=
EXTT7=
EXTT8=
EXTT9=
PLAYORDER=
